<?xml version="1.0" standalone="no"?>
<svg xmlns="http://www.w3.org/2000/svg" width="32" height="32"><rect width="32" height="32" opacity="0"></rect><g><path d="M16 25.22Q16.42 25.22 16.7 24.93Q16.99 24.64 16.99 24.22L16.99 14.98Q16.99 14.56 16.7 14.27Q16.42 13.98 16 13.98Q15.58 13.98 15.3 14.27Q15.01 14.56 15.01 14.98L15.01 24.22Q15.01 24.64 15.3 24.93Q15.58 25.22 16 25.22ZM28.58 6.5Q28.16 6.18 27.68 6.1Q27.2 6.02 26.72 6.18L25.66 6.53L25.66 3.55Q25.66 3.46 25.66 3.39Q25.57 2.88 25.18 2.59Q24.96 2.43 24.7 2.37Q24.45 2.3 24.16 2.37Q22.43 2.82 20.16 4.16Q17.89 5.5 15.97 8.22Q14.05 5.5 11.76 4.16Q9.47 2.82 7.78 2.37Q7.74 2.37 7.73 2.37Q7.71 2.37 7.71 2.34Q7.46 2.3 7.2 2.37Q6.94 2.43 6.75 2.59Q6.3 2.94 6.3 3.55L6.3 6.53L5.28 6.21L5.12 6.14Q4.13 5.92 3.42 6.5Q3.01 6.78 2.78 7.23Q2.56 7.68 2.56 8.16L2.56 23.94Q2.56 24.61 2.96 25.14Q3.36 25.66 4 25.89L14.88 29.5Q15.62 29.7 16.05 29.7Q16.48 29.7 17.18 29.5L28.03 25.89Q28.67 25.66 29.06 25.14Q29.44 24.61 29.44 23.94L29.44 8.16Q29.44 7.65 29.22 7.22Q28.99 6.78 28.58 6.5ZM23.68 7.2L17.76 9.15Q19.1 7.33 20.67 6.26Q22.24 5.18 23.68 4.64ZM8.29 4.64Q9.15 4.96 10.13 5.5Q11.1 6.05 12.18 6.96Q13.25 7.87 14.18 9.12L8.29 7.2L8.29 4.64ZM16.54 27.58Q16.03 27.74 15.49 27.58L4.58 23.94L4.64 8.1L14.88 11.46Q16 11.84 17.18 11.46L27.42 8.16L27.42 23.94L16.54 27.58Z" fill="rgba(12,89,247,1)"></path></g></svg>