<?xml version="1.0" standalone="no"?>
<svg xmlns="http://www.w3.org/2000/svg" width="24" height="24"><rect width="24" height="24" opacity="0"></rect><g><path d="M17.95 10.34Q18.17 10.13 18.17 9.82Q18.17 9.5 17.95 9.29Q17.74 9.07 17.42 9.07Q17.11 9.07 16.9 9.29L12.07 14.11L7.25 9.29Q7.03 9.07 6.72 9.07Q6.41 9.07 6.19 9.29Q5.98 9.53 5.98 9.84Q5.98 10.15 6.19 10.34L11.18 15.36Q11.54 15.72 12.05 15.72Q12.55 15.72 12.96 15.36L17.95 10.34Z" fill="rgba(0,0,0,0.5411764705882353)"></path><path d="M12 21.5Q9.43 21.5 7.25 20.22Q5.06 18.94 3.78 16.75Q2.5 14.57 2.5 12Q2.5 9.43 3.78 7.25Q5.06 5.06 7.25 3.78Q9.43 2.5 12 2.5Q14.59 2.5 16.78 3.78Q18.96 5.06 20.23 7.25Q21.5 9.43 21.5 12Q21.5 14.57 20.23 16.75Q18.96 18.94 16.78 20.22Q14.59 21.5 12 21.5ZM12 22.99Q15 22.99 17.52 21.52Q20.04 20.04 21.52 17.52Q22.99 15 22.99 12Q22.99 9.02 21.52 6.49Q20.04 3.96 17.51 2.48Q14.98 1.01 12 1.01Q9.02 1.01 6.49 2.48Q3.96 3.96 2.48 6.49Q1.01 9.02 1.01 12Q1.01 15 2.48 17.52Q3.96 20.04 6.48 21.52Q9 22.99 12 22.99Z" fill="rgba(0,0,0,0.5411764705882353)"></path></g></svg>